# Blender v2.79 (sub 0) OBJ File: ''
# www.blender.org
mtllib flash.mtl
o Red_Flashly_Part_MIB_Neuralyzer
v 2.048884 19.616915 -6.096000
v 2.048884 19.616915 -0.000000
v 2.686333 20.511303 -0.000000
v 2.686333 20.511303 -6.096000
v 3.398674 21.347273 -0.000000
v 3.398674 21.347273 -6.096000
v 4.180578 22.118568 -0.000000
v 4.180578 22.118568 -6.096000
v 5.026197 22.819426 -0.000000
v 5.026197 22.819426 -6.096000
v 5.929209 23.444599 -0.000000
v 5.929209 23.444599 -6.096000
v 6.882859 23.989412 -0.000000
v 6.882859 23.989412 -6.096000
v 7.880015 24.449797 -0.000000
v 7.880015 24.449797 -6.096000
v 8.913219 24.822306 -0.000000
v 8.913219 24.822306 -6.096000
v 9.974744 25.104151 -0.000000
v 9.974744 25.104151 -6.096000
v 11.056650 25.293228 -0.000000
v 11.056650 25.293228 -6.096000
v 12.150847 25.388123 -0.000000
v 12.150847 25.388123 -6.096000
v 13.249152 25.388123 -0.000000
v 13.249152 25.388123 -6.096000
v 14.343349 25.293228 -0.000000
v 14.343349 25.293228 -6.096000
v 15.425256 25.104151 -0.000000
v 15.425256 25.104151 -6.096000
v 16.486780 24.822306 -0.000000
v 16.486780 24.822306 -6.096000
v 17.519985 24.449797 -0.000000
v 17.519985 24.449797 -6.096000
v 18.517139 23.989412 -0.000000
v 18.517139 23.989412 -6.096000
v 19.470791 23.444599 -0.000000
v 19.470791 23.444599 -6.096000
v 20.373802 22.819426 -0.000000
v 20.373802 22.819426 -6.096000
v 21.219421 22.118568 -0.000000
v 21.219421 22.118568 -6.096000
v 22.001326 21.347273 -0.000000
v 22.001326 21.347273 -6.096000
v 22.713667 20.511303 -0.000000
v 22.713667 20.511303 -6.096000
v 23.351116 19.616915 -0.000000
v 23.351116 19.616915 -6.096000
v 20.688335 17.887688 -6.096000
v 20.688335 17.887688 -0.000000
v 20.133600 18.655436 -0.000000
v 20.133600 18.655436 -6.096000
v 19.505352 19.364294 -0.000000
v 19.505352 19.364294 -6.096000
v 18.809807 20.007250 -0.000000
v 18.809807 20.007250 -6.096000
v 18.053844 20.577942 -0.000000
v 18.053844 20.577942 -6.096000
v 17.244936 21.070734 -0.000000
v 17.244936 21.070734 -6.096000
v 16.391085 21.480747 -0.000000
v 16.391085 21.480747 -6.096000
v 15.500733 21.803928 -0.000000
v 15.500733 21.803928 -6.096000
v 14.582686 22.037081 -0.000000
v 14.582686 22.037081 -6.096000
v 13.646021 22.177904 -0.000000
v 13.646021 22.177904 -6.096000
v 12.700000 22.225000 -0.000000
v 12.700000 22.225000 -6.096000
v 11.753979 22.177904 -0.000000
v 11.753979 22.177904 -6.096000
v 10.817313 22.037081 -0.000000
v 10.817313 22.037081 -6.096000
v 9.899266 21.803928 -0.000000
v 9.899266 21.803928 -6.096000
v 9.008914 21.480747 -0.000000
v 9.008914 21.480747 -6.096000
v 8.155063 21.070734 -0.000000
v 8.155063 21.070734 -6.096000
v 7.346156 20.577942 -0.000000
v 7.346156 20.577942 -6.096000
v 6.590192 20.007250 -0.000000
v 6.590192 20.007250 -6.096000
v 5.894648 19.364294 -0.000000
v 5.894648 19.364294 -6.096000
v 5.266400 18.655436 -0.000000
v 5.266400 18.655436 -6.096000
v 4.711662 17.887688 -0.000000
v 4.711662 17.887688 -6.096000
v 2.048884 19.616915 0.000000
v 4.711662 17.887688 0.000000
v 2.048884 19.616915 0.000000
v 4.711662 17.887688 0.000000
v 2.686333 20.511303 0.000000
v 5.266400 18.655436 0.000000
v 3.398674 21.347273 0.000000
v 5.894648 19.364294 0.000000
v 4.180578 22.118568 0.000000
v 6.590192 20.007250 0.000000
v 5.026197 22.819426 0.000000
v 7.346156 20.577942 0.000000
v 20.688335 17.887688 0.000000
v 23.351116 19.616915 0.000000
v 20.133600 18.655436 0.000000
v 22.713667 20.511303 0.000000
v 19.505352 19.364294 0.000000
v 22.001326 21.347273 0.000000
v 18.809807 20.007250 0.000000
v 13.646021 22.177904 0.000000
v 13.249152 25.388123 0.000000
v 12.700000 22.225000 0.000000
v 12.150847 25.388123 0.000000
v 11.753979 22.177904 0.000000
v 11.056650 25.293228 0.000000
v 10.817313 22.037081 0.000000
v 9.974744 25.104151 0.000000
v 9.899266 21.803928 0.000000
v 8.913219 24.822306 0.000000
v 9.008914 21.480747 0.000000
v 7.880015 24.449797 0.000000
v 8.155063 21.070734 0.000000
v 6.882859 23.989412 0.000000
v 5.929209 23.444599 0.000000
v 21.219421 22.118568 0.000000
v 20.373802 22.819426 0.000000
v 18.053844 20.577942 0.000000
v 19.470791 23.444599 0.000000
v 17.244936 21.070734 0.000000
v 18.517139 23.989412 0.000000
v 16.391085 21.480747 0.000000
v 17.519985 24.449797 0.000000
v 15.500733 21.803928 0.000000
v 16.486780 24.822306 0.000000
v 14.582686 22.037081 0.000000
v 15.425256 25.104151 0.000000
v 14.343349 25.293228 0.000000
vn -0.8143 0.5804 0.0000
vn -0.7611 0.6486 0.0000
vn -0.7023 0.7119 0.0000
vn -0.6381 0.7699 0.0000
vn -0.5692 0.8222 0.0000
vn -0.4960 0.8683 0.0000
vn -0.4961 0.8683 0.0000
vn -0.4192 0.9079 0.0000
vn -0.3392 0.9407 0.0000
vn -0.2566 0.9665 0.0000
vn -0.1722 0.9851 0.0000
vn -0.0864 0.9963 0.0000
vn 0.0000 1.0000 0.0000
vn 0.0864 0.9963 0.0000
vn 0.1722 0.9851 0.0000
vn 0.2566 0.9665 0.0000
vn 0.3392 0.9407 0.0000
vn 0.4192 0.9079 0.0000
vn 0.4960 0.8683 0.0000
vn 0.5692 0.8222 0.0000
vn 0.6381 0.7699 0.0000
vn 0.7023 0.7119 0.0000
vn 0.7611 0.6486 0.0000
vn 0.8143 0.5804 0.0000
vn 0.5446 -0.8387 0.0000
vn -0.8106 -0.5857 0.0000
vn -0.7484 -0.6633 0.0000
vn -0.6788 -0.7343 0.0000
vn -0.6025 -0.7981 0.0000
vn -0.5203 -0.8540 0.0000
vn -0.4329 -0.9015 0.0000
vn -0.3412 -0.9400 0.0000
vn -0.2462 -0.9692 0.0000
vn -0.1487 -0.9889 0.0000
vn -0.0497 -0.9988 0.0000
vn 0.0497 -0.9988 0.0000
vn 0.1487 -0.9889 0.0000
vn 0.2462 -0.9692 0.0000
vn 0.3412 -0.9400 0.0000
vn 0.4329 -0.9015 0.0000
vn 0.5203 -0.8540 0.0000
vn 0.6025 -0.7981 0.0000
vn 0.6788 -0.7343 0.0000
vn 0.7484 -0.6633 0.0000
vn 0.8106 -0.5857 0.0000
vn -0.5446 -0.8387 0.0000
vn 0.0000 0.0000 -1.0000
vn 0.0000 0.0000 1.0000
usemtl None
s off
f 1//1 2//1 3//1
f 1//1 3//1 4//1
f 4//2 3//2 5//2
f 4//2 5//2 6//2
f 6//3 5//3 7//3
f 6//3 7//3 8//3
f 8//4 7//4 9//4
f 8//4 9//4 10//4
f 10//5 9//5 11//5
f 10//5 11//5 12//5
f 12//6 11//6 13//6
f 12//7 13//7 14//7
f 14//8 13//8 15//8
f 14//8 15//8 16//8
f 16//9 15//9 17//9
f 16//9 17//9 18//9
f 18//10 17//10 19//10
f 18//10 19//10 20//10
f 20//11 19//11 21//11
f 20//11 21//11 22//11
f 22//12 21//12 23//12
f 22//12 23//12 24//12
f 24//13 23//13 25//13
f 24//13 25//13 26//13
f 26//14 25//14 27//14
f 26//14 27//14 28//14
f 28//15 27//15 29//15
f 28//15 29//15 30//15
f 30//16 29//16 31//16
f 30//16 31//16 32//16
f 32//17 31//17 33//17
f 32//17 33//17 34//17
f 34//18 33//18 35//18
f 34//18 35//18 36//18
f 36//19 35//19 37//19
f 36//19 37//19 38//19
f 38//20 37//20 39//20
f 38//20 39//20 40//20
f 40//21 39//21 41//21
f 40//21 41//21 42//21
f 42//22 41//22 43//22
f 42//22 43//22 44//22
f 44//23 43//23 45//23
f 44//23 45//23 46//23
f 46//24 45//24 47//24
f 46//24 47//24 48//24
f 49//25 48//25 50//25
f 50//25 48//25 47//25
f 49//26 50//26 51//26
f 49//26 51//26 52//26
f 52//27 51//27 53//27
f 52//27 53//27 54//27
f 54//28 53//28 55//28
f 54//28 55//28 56//28
f 56//29 55//29 57//29
f 56//29 57//29 58//29
f 58//30 57//30 59//30
f 58//30 59//30 60//30
f 60//31 59//31 61//31
f 60//31 61//31 62//31
f 62//32 61//32 63//32
f 62//32 63//32 64//32
f 64//33 63//33 65//33
f 64//33 65//33 66//33
f 66//34 65//34 67//34
f 66//34 67//34 68//34
f 68//35 67//35 69//35
f 68//35 69//35 70//35
f 70//36 69//36 71//36
f 70//36 71//36 72//36
f 72//37 71//37 73//37
f 72//37 73//37 74//37
f 74//38 73//38 75//38
f 74//38 75//38 76//38
f 76//39 75//39 77//39
f 76//39 77//39 78//39
f 78//40 77//40 79//40
f 78//40 79//40 80//40
f 80//41 79//41 81//41
f 80//41 81//41 82//41
f 82//42 81//42 83//42
f 82//42 83//42 84//42
f 84//43 83//43 85//43
f 84//43 85//43 86//43
f 86//44 85//44 87//44
f 86//44 87//44 88//44
f 88//45 87//45 89//45
f 88//45 89//45 90//45
f 1//46 90//46 91//46
f 91//46 90//46 92//46
f 48//47 49//47 46//47
f 46//47 49//47 52//47
f 46//47 52//47 44//47
f 44//47 52//47 54//47
f 44//47 54//47 42//47
f 42//47 54//47 56//47
f 42//47 56//47 40//47
f 40//47 56//47 58//47
f 70//47 26//47 68//47
f 68//47 26//47 28//47
f 68//47 28//47 66//47
f 66//47 28//47 30//47
f 66//47 30//47 64//47
f 64//47 30//47 32//47
f 64//47 32//47 62//47
f 62//47 32//47 34//47
f 62//47 34//47 60//47
f 60//47 34//47 36//47
f 60//47 36//47 58//47
f 58//47 36//47 38//47
f 58//47 38//47 40//47
f 90//47 1//47 88//47
f 88//47 1//47 4//47
f 88//47 4//47 86//47
f 86//47 4//47 6//47
f 86//47 6//47 84//47
f 6//47 8//47 84//47
f 84//47 8//47 10//47
f 84//47 10//47 82//47
f 82//47 10//47 12//47
f 82//47 12//47 80//47
f 80//47 12//47 14//47
f 80//47 14//47 78//47
f 78//47 14//47 16//47
f 78//47 16//47 76//47
f 76//47 16//47 18//47
f 76//47 18//47 74//47
f 74//47 18//47 20//47
f 74//47 20//47 72//47
f 72//47 20//47 22//47
f 72//47 22//47 70//47
f 70//47 22//47 24//47
f 70//47 24//47 26//47
f 93//48 94//48 95//48
f 95//48 94//48 96//48
f 95//48 96//48 97//48
f 97//48 96//48 98//48
f 97//48 98//48 99//48
f 99//48 98//48 100//48
f 99//48 100//48 101//48
f 101//48 100//48 102//48
f 103//48 104//48 105//48
f 105//48 104//48 106//48
f 105//48 106//48 107//48
f 107//48 106//48 108//48
f 107//48 108//48 109//48
f 110//48 111//48 112//48
f 112//48 111//48 113//48
f 112//48 113//48 114//48
f 114//48 113//48 115//48
f 114//48 115//48 116//48
f 116//48 115//48 117//48
f 116//48 117//48 118//48
f 118//48 117//48 119//48
f 118//48 119//48 120//48
f 120//48 119//48 121//48
f 120//48 121//48 122//48
f 122//48 121//48 123//48
f 122//48 123//48 102//48
f 102//48 123//48 124//48
f 102//48 124//48 101//48
f 108//48 125//48 109//48
f 109//48 125//48 126//48
f 109//48 126//48 127//48
f 127//48 126//48 128//48
f 127//48 128//48 129//48
f 129//48 128//48 130//48
f 129//48 130//48 131//48
f 131//48 130//48 132//48
f 131//48 132//48 133//48
f 133//48 132//48 134//48
f 133//48 134//48 135//48
f 135//48 134//48 136//48
f 135//48 136//48 110//48
f 110//48 136//48 137//48
f 110//48 137//48 111//48
